<svg width="14" height="16" viewBox="0 0 14 16" fill="none" xmlns="http://www.w3.org/2000/svg">
<path d="M12.9909 4.09191L12.4812 2.56441C12.3469 2.16197 11.9716 1.89159 11.5474 1.89159H9.19004V1.34369C9.19004 0.602781 8.58726 0 7.84635 0H6.46545C5.72454 0 5.12176 0.602781 5.12176 1.34369V1.89159H2.45301C2.02873 1.89159 1.65345 2.16197 1.51913 2.56441L1.00945 4.09191C0.96176 4.23487 0.985697 4.39203 1.07379 4.51431C1.11722 4.57458 1.17435 4.62367 1.24047 4.65752C1.30659 4.69138 1.37982 4.70903 1.4541 4.70903H1.62754L2.84254 15.5833C2.86904 15.8206 3.06967 16 3.30838 16H10.6344C10.7498 16 10.861 15.9575 10.947 15.8806C11.0329 15.8038 11.0875 15.6979 11.1003 15.5833L12.3153 4.70903H12.5463C12.6206 4.70904 12.6938 4.69139 12.7599 4.65753C12.826 4.62368 12.8832 4.57459 12.9266 4.51432C12.97 4.45405 12.9985 4.38431 13.0097 4.31087C13.0209 4.23743 13.0145 4.16238 12.9909 4.09191ZM6.05926 1.34369C6.05926 1.11972 6.24148 0.9375 6.46545 0.9375H7.84635C8.07032 0.9375 8.25254 1.11972 8.25254 1.34369V1.89159H6.05926V1.34369ZM10.2152 15.0625H3.72773L2.57092 4.70903H11.372L10.2152 15.0625ZM2.1047 3.77153L2.40845 2.86116C2.41156 2.8518 2.41755 2.84367 2.42556 2.83791C2.43356 2.83215 2.44318 2.82907 2.45304 2.82909H11.5474C11.5572 2.82907 11.5669 2.83216 11.5749 2.83792C11.5829 2.84367 11.5888 2.85181 11.5919 2.86116L11.8957 3.77153H2.1047Z" fill="#202020"/>
</svg>
